<svg xmlns="http://www.w3.org/2000/svg" width="26" height="22" fill="none"><path fill="#F0145A" d="M14.232 13.332v-.558c0-.6805-.5515-1.232-1.2315-1.232-.6805 0-1.232.5515-1.232 1.232v.558c0 .6805.5515 1.232 1.232 1.232.6795 0 1.2315-.5515 1.2315-1.232Z"/><path fill="#F0145A" d="M15.077 14.0136c-.273.8935-1.0955 1.5495-2.0765 1.5495-.9815 0-1.804-.656-2.077-1.5495H2.439c-.5355 0-1.0415-.1245-1.4955-.3405v5.6335c0 1.1.9 2 2 2h20.113c1.1 0 2-.9 2-2v-5.633c-.4545.216-.96.3405-1.4955.3405h-8.484v-.0005ZM23.4775 3.8976H18.677c-.29-1.813-1.8605-3.204-3.754-3.204h-3.8465c-1.8935 0-3.4635 1.391-3.754 3.204h-4.8c-1.146 0-2.0835.9-2.0835 2v4.6165c0 1.1045.8955 2 2 2h8.39c.0285-.5755.2755-1.0925.666-1.4665.012-.0115.026-.0205.0385-.0315.0865-.0795.1765-.1545.275-.2195.035-.0235.075-.0395.1115-.0605.081-.0465.161-.095.2485-.131.0685-.0285.1425-.045.2145-.0665.062-.0185.121-.043.1855-.056A2.1554 2.1554 0 0 1 13 10.4391c.148 0 .292.0155.4315.0435.064.013.123.0375.185.056.072.0215.146.038.2145.067.087.036.1665.084.2475.1305.037.0215.077.0375.1125.061.0985.0645.188.1395.2745.219.0125.0115.027.0205.039.0325.391.374.6375.891.666 1.4665h8.39c1.1045 0 2-.8955 2-2V5.8986c.0005-1.101-.937-2.001-2.083-2.001Zm-14.2295 0c.255-.7705.9735-1.332 1.8285-1.332h3.8465c.855 0 1.5735.5615 1.8285 1.332H9.248Z"/></svg>