<svg xmlns="http://www.w3.org/2000/svg" width="26" height="26" fill="none"><path fill="#F0145A" d="M13.097.553C6.2525.553.684 6.1215.684 12.966c0 6.845 5.5685 12.414 12.413 12.414S25.51 19.811 25.51 12.966C25.5105 6.1215 19.942.553 13.097.553Zm6.8585 11.5055v.0005l-3.5935 2.6 1.384 4.23a.6598.6598 0 0 1 .0335.2085c0 .3695-.299.6695-.6685.6695a.666.666 0 0 1-.392-.1265l-3.6215-2.6195-3.6215 2.6195a.6656.6656 0 0 1-.3915.1265.6692.6692 0 0 1-.6695-.6695c0-.0725.012-.1425.034-.2085l1.3845-4.23-3.5935-2.6v-.0005a.6657.6657 0 0 1-.277-.5415c0-.3695.299-.6685.669-.6685h4.4485L12.458 6.638a.6695.6695 0 0 1 1.2795 0l1.3775 4.2105h4.4485a.6684.6684 0 0 1 .392 1.21Z"/></svg>