<svg xmlns="http://www.w3.org/2000/svg" width="64" height="64" fill="none"><g clip-path="url(#a)"><path fill="#000" d="M60.5262 37.7273c-.6875-.2847-1.4112-.4291-2.1511-.4291-1.6317 0-3.139.6964-4.1856 1.8633l-1.22-.5053-3.4801-1.4415c.4939-1.6531.7604-3.4034.7604-5.2149s-.2667-3.5617-.7604-5.2149l3.4801-1.4414 1.22-.5054c1.0466 1.167 2.5539 1.8633 4.1856 1.8633.7399 0 1.4636-.1443 2.1511-.4292 2.8654-1.187 4.2312-4.4839 3.0442-7.3495-.874-2.1099-2.9145-3.4734-5.1983-3.4734-.7399 0-1.4636.1444-2.1511.4293-2.2583.9354-3.5838 3.1812-3.4638 5.4936l-1.2271.5083-3.479 1.441c-1.6901-3.1135-4.2596-5.6832-7.3731-7.3732l1.441-3.4789.5078-1.2258c.0983.0051.197.0081.296.0081 2.2838 0 4.3242-1.36334 5.1983-3.47334 1.1869-2.86549-.1787-6.16249-3.0442-7.349486C44.3893.144375 43.6656 0 42.9258 0c-2.2839 0-4.3243 1.36337-5.1984 3.47337-.9354 2.25824-.2846 4.78361 1.4354 6.33386l-.5065 1.22287-1.4415 3.4801c-1.6531-.4937-3.4034-.7604-5.2149-.7604s-3.5617.2667-5.2149.7604l-1.4415-3.4801-.5064-1.22287c1.7199-1.55025 2.3707-4.07562 1.4353-6.33399C25.3983 1.36337 23.3577 0 21.0739 0c-.7398 0-1.4636.144375-2.1511.429249-2.8654 1.187001-4.2311 4.483871-3.0441 7.349491.874 2.10987 2.9145 3.47336 5.1982 3.47336.099 0 .1977-.003.296-.0081l.5078 1.2257 1.441 3.479c-3.1135 1.6901-5.6831 4.2596-7.3731 7.3731l-3.479-1.441-1.2271-.5082c.12-2.3124-1.2055-4.5583-3.46379-5.4938-.6875-.2847-1.41125-.4291-2.15112-.4291-2.28387 0-4.32424 1.3634-5.198368 3.4734-1.186873 2.8655.178749 6.1625 3.044248 7.3495.68749.2847 1.41124.4291 2.15112.4291 1.63174 0 3.13899-.6964 4.18561-1.8634l1.22.5054 3.4801 1.4415c-.4939 1.6531-.7604 3.4034-.7604 5.2149s.2667 3.5617.7604 5.2148l-3.4802 1.4413-1.22002.5053c-1.04662-1.1669-2.55387-1.8633-4.18562-1.8633-.73987 0-1.46362.1444-2.15112.4292-2.865369 1.187-4.231116 4.4839-3.044118 7.3495.873998 2.1099 2.914498 3.4734 5.198238 3.4734.73988 0 1.46362-.1444 2.15112-.4293 2.25822-.9353 3.58372-3.1812 3.46372-5.4936l1.2271-.5082 3.479-1.441c1.6902 3.1135 4.2597 5.6831 7.3732 7.3731l-1.441 3.479-.5078 1.2257c-.0984-.0051-.197-.0081-.296-.0081-2.2839 0-4.3242 1.3634-5.1984 3.4734-1.1868 2.8655.1788 6.1625 3.0443 7.3495.6875.2847 1.4112.4291 2.1511.4291 2.2839 0 4.3243-1.3634 5.1984-3.4734.9353-2.2582.2846-4.7836-1.4354-6.3339l.5065-1.2228 1.4415-3.4801c1.6531.4937 3.4034.7603 5.2149.7603s3.5617-.2666 5.2148-.7603l1.4415 3.4801.5065 1.2228c-1.72 1.5503-2.3707 4.0757-1.4353 6.334C38.6012 62.6365 40.6416 64 42.9254 64c.7399 0 1.4636-.1444 2.1511-.4292 2.8654-1.187 4.2311-4.4839 3.0441-7.3495-.874-2.1099-2.9145-3.4734-5.1982-3.4734-.099 0-.1976.003-.296.0081l-.5078-1.2257-1.441-3.479c3.1135-1.6901 5.6832-4.2596 7.3732-7.3731l3.479 1.441 1.2271.5082c-.12 2.3124 1.2055 4.5583 3.4637 5.4938.6875.2847 1.4113.4291 2.1511.4291 2.2839 0 4.3243-1.3634 5.1984-3.4734 1.1873-2.8656-.1782-6.1626-3.0439-7.3496Zm-28.5263 8.7725c-7.9952 0-14.5-6.5048-14.5-14.5s6.5048-14.5 14.5-14.5c7.9953 0 14.5 6.5048 14.5 14.5s-6.5049 14.5-14.5 14.5Z"/><path fill="url(#b)" d="M60.5262 37.7273c-.6875-.2847-1.4112-.4291-2.1511-.4291-1.6317 0-3.139.6964-4.1856 1.8633l-1.22-.5053-3.4801-1.4415c.4939-1.6531.7604-3.4034.7604-5.2149s-.2667-3.5617-.7604-5.2149l3.4801-1.4414 1.22-.5054c1.0466 1.167 2.5539 1.8633 4.1856 1.8633.7399 0 1.4636-.1443 2.1511-.4292 2.8654-1.187 4.2312-4.4839 3.0442-7.3495-.874-2.1099-2.9145-3.4734-5.1983-3.4734-.7399 0-1.4636.1444-2.1511.4293-2.2583.9354-3.5838 3.1812-3.4638 5.4936l-1.2271.5083-3.479 1.441c-1.6901-3.1135-4.2596-5.6832-7.3731-7.3732l1.441-3.4789.5078-1.2258c.0983.0051.197.0081.296.0081 2.2838 0 4.3242-1.36334 5.1983-3.47334 1.1869-2.86549-.1787-6.16249-3.0442-7.349486C44.3893.144375 43.6656 0 42.9258 0c-2.2839 0-4.3243 1.36337-5.1984 3.47337-.9354 2.25824-.2846 4.78361 1.4354 6.33386l-.5065 1.22287-1.4415 3.4801c-1.6531-.4937-3.4034-.7604-5.2149-.7604s-3.5617.2667-5.2149.7604l-1.4415-3.4801-.5064-1.22287c1.7199-1.55025 2.3707-4.07562 1.4353-6.33399C25.3983 1.36337 23.3577 0 21.0739 0c-.7398 0-1.4636.144375-2.1511.429249-2.8654 1.187001-4.2311 4.483871-3.0441 7.349491.874 2.10987 2.9145 3.47336 5.1982 3.47336.099 0 .1977-.003.296-.0081l.5078 1.2257 1.441 3.479c-3.1135 1.6901-5.6831 4.2596-7.3731 7.3731l-3.479-1.441-1.2271-.5082c.12-2.3124-1.2055-4.5583-3.46379-5.4938-.6875-.2847-1.41125-.4291-2.15112-.4291-2.28387 0-4.32424 1.3634-5.198368 3.4734-1.186873 2.8655.178749 6.1625 3.044248 7.3495.68749.2847 1.41124.4291 2.15112.4291 1.63174 0 3.13899-.6964 4.18561-1.8634l1.22.5054 3.4801 1.4415c-.4939 1.6531-.7604 3.4034-.7604 5.2149s.2667 3.5617.7604 5.2148l-3.4802 1.4413-1.22002.5053c-1.04662-1.1669-2.55387-1.8633-4.18562-1.8633-.73987 0-1.46362.1444-2.15112.4292-2.865369 1.187-4.231116 4.4839-3.044118 7.3495.873998 2.1099 2.914498 3.4734 5.198238 3.4734.73988 0 1.46362-.1444 2.15112-.4293 2.25822-.9353 3.58372-3.1812 3.46372-5.4936l1.2271-.5082 3.479-1.441c1.6902 3.1135 4.2597 5.6831 7.3732 7.3731l-1.441 3.479-.5078 1.2257c-.0984-.0051-.197-.0081-.296-.0081-2.2839 0-4.3242 1.3634-5.1984 3.4734-1.1868 2.8655.1788 6.1625 3.0443 7.3495.6875.2847 1.4112.4291 2.1511.4291 2.2839 0 4.3243-1.3634 5.1984-3.4734.9353-2.2582.2846-4.7836-1.4354-6.3339l.5065-1.2228 1.4415-3.4801c1.6531.4937 3.4034.7603 5.2149.7603s3.5617-.2666 5.2148-.7603l1.4415 3.4801.5065 1.2228c-1.72 1.5503-2.3707 4.0757-1.4353 6.334C38.6012 62.6365 40.6416 64 42.9254 64c.7399 0 1.4636-.1444 2.1511-.4292 2.8654-1.187 4.2311-4.4839 3.0441-7.3495-.874-2.1099-2.9145-3.4734-5.1982-3.4734-.099 0-.1976.003-.296.0081l-.5078-1.2257-1.441-3.479c3.1135-1.6901 5.6832-4.2596 7.3732-7.3731l3.479 1.441 1.2271.5082c-.12 2.3124 1.2055 4.5583 3.4637 5.4938.6875.2847 1.4113.4291 2.1511.4291 2.2839 0 4.3243-1.3634 5.1984-3.4734 1.1873-2.8656-.1782-6.1626-3.0439-7.3496Zm-28.5263 8.7725c-7.9952 0-14.5-6.5048-14.5-14.5s6.5048-14.5 14.5-14.5c7.9953 0 14.5 6.5048 14.5 14.5s-6.5049 14.5-14.5 14.5Z"/><path fill="#000" d="M32 21.25c-5.9275 0-10.75 4.8225-10.75 10.75S26.0725 42.75 32 42.75 42.75 37.9275 42.75 32 37.9275 21.25 32 21.25Zm1.875 14.875h-3.75v-8.25h3.75v8.25Z"/><path fill="url(#c)" d="M32 21.25c-5.9275 0-10.75 4.8225-10.75 10.75S26.0725 42.75 32 42.75 42.75 37.9275 42.75 32 37.9275 21.25 32 21.25Zm1.875 14.875h-3.75v-8.25h3.75v8.25Z"/></g><defs><linearGradient id="b" x1="31.9998" x2="31.9998" y1="0" y2="64" gradientUnits="userSpaceOnUse"><stop stop-color="#EF8080"/><stop offset="1" stop-color="#F0145A"/></linearGradient><linearGradient id="c" x1="32" x2="32" y1="21.25" y2="42.75" gradientUnits="userSpaceOnUse"><stop stop-color="#EF8080"/><stop offset="1" stop-color="#F0145A"/></linearGradient><clipPath id="a"><path fill="#fff" d="M0 0h64v64H0z"/></clipPath></defs></svg>