<svg xmlns="http://www.w3.org/2000/svg" width="64" height="64" fill="none"><path fill="#000" d="M42.0059 56h-19v6h19v-6Z"/><path fill="url(#a)" d="M42.0059 56h-19v6h19v-6Z"/><path fill="#000" d="M15.1728 2.45168 1.73779 15.8867l3.53554 3.5356L18.7084 5.98722l-3.5356-3.53554Z"/><path fill="url(#b)" d="M15.1728 2.45168 1.73779 15.8867l3.53554 3.5356L18.7084 5.98722l-3.5356-3.53554Z"/><path fill="#000" d="m49.1127 2.31995-3.5356 3.53552L59.0122 19.2905l3.5355-3.5355-13.435-13.43505Z"/><path fill="url(#c)" d="m49.1127 2.31995-3.5356 3.53552L59.0122 19.2905l3.5355-3.5355-13.435-13.43505Z"/><path fill="#000" d="m44.5564 9.70843-2.6913-.11407c-.7761-.10954-1.567-.03723-2.3103.21122-.7433.24842-1.4187.66622-1.9729 1.22042l-5.5044 5.5045-5.7536-5.7536c-.4995-.4881-1.1228-.83062-1.8025-.99078-.6798-.16016-1.3904-.13186-2.0553.08186-.6273.19072-1.2946.20752-1.9306.04842-.636-.15908-1.2169-.48798-1.6804-.95157l-.8539-.85388L7.39453 18.7175l1.728 1.728-.11408 2.6913c-.10954.776-.03723 1.5669.21121 2.3102.24845.7433.66624 1.4187 1.22044 1.9729l9.6124 9.6125c.1285-1.2619.7331-2.4273 1.6907-3.259l-2.995-2.9949.7071-.7071 3.1283 3.1282c.4434-.2524.9232-.4347 1.4223-.5405v-3.694l-1.7221-1.7221.707-.7072 1.0151 1.0151V22.201c-.0111-.8842.3027-1.7418.882-2.41.5793-.6682 1.3837-1.1006 2.2606-1.215.3307-.032.6643-.017.9908.0448l-1.2295-1.2294.7071-.7071 1.7962 1.7961c.3181-.6164.8102-1.1257 1.4152-1.465.605-.3392 1.2963-.4933 1.9882-.4433.8348.0976 1.6093.4841 2.1892 1.0926.5798.6086.9285 1.4008.9856 2.2394.5683-.2701 1.1981-.3847 1.8252-.332.891.1067 1.7108.5405 2.3001 1.2174.5893.6768.9063 1.5484.8893 2.4457v3.4239c.9101.19 1.7492.6299 2.4233 1.2702.674.6403 1.1563 1.4558 1.3928 2.3549l2.7885-2.7885.7071.7072-3.3153 3.3152c.0001.0138.0036.0266.0036.0404v3.32c.8984-.094 1.7378-.4921 2.3789-1.1284l6.8402-6.8402c.4881-.4995.8306-1.1228.9908-1.8026.1601-.6797.1318-1.3904-.0819-2.0552-.1908-.6273-.2075-1.2946-.0484-1.9306.159-.6361.488-1.2169.9516-1.6805l.8538-.8539L46.2844 7.98047l-1.728 1.72796Z"/><path fill="url(#d)" d="m44.5564 9.70843-2.6913-.11407c-.7761-.10954-1.567-.03723-2.3103.21122-.7433.24842-1.4187.66622-1.9729 1.22042l-5.5044 5.5045-5.7536-5.7536c-.4995-.4881-1.1228-.83062-1.8025-.99078-.6798-.16016-1.3904-.13186-2.0553.08186-.6273.19072-1.2946.20752-1.9306.04842-.636-.15908-1.2169-.48798-1.6804-.95157l-.8539-.85388L7.39453 18.7175l1.728 1.728-.11408 2.6913c-.10954.776-.03723 1.5669.21121 2.3102.24845.7433.66624 1.4187 1.22044 1.9729l9.6124 9.6125c.1285-1.2619.7331-2.4273 1.6907-3.259l-2.995-2.9949.7071-.7071 3.1283 3.1282c.4434-.2524.9232-.4347 1.4223-.5405v-3.694l-1.7221-1.7221.707-.7072 1.0151 1.0151V22.201c-.0111-.8842.3027-1.7418.882-2.41.5793-.6682 1.3837-1.1006 2.2606-1.215.3307-.032.6643-.017.9908.0448l-1.2295-1.2294.7071-.7071 1.7962 1.7961c.3181-.6164.8102-1.1257 1.4152-1.465.605-.3392 1.2963-.4933 1.9882-.4433.8348.0976 1.6093.4841 2.1892 1.0926.5798.6086.9285 1.4008.9856 2.2394.5683-.2701 1.1981-.3847 1.8252-.332.891.1067 1.7108.5405 2.3001 1.2174.5893.6768.9063 1.5484.8893 2.4457v3.4239c.9101.19 1.7492.6299 2.4233 1.2702.674.6403 1.1563 1.4558 1.3928 2.3549l2.7885-2.7885.7071.7072-3.3153 3.3152c.0001.0138.0036.0266.0036.0404v3.32c.8984-.094 1.7378-.4921 2.3789-1.1284l6.8402-6.8402c.4881-.4995.8306-1.1228.9908-1.8026.1601-.6797.1318-1.3904-.0819-2.0552-.1908-.6273-.2075-1.2946-.0484-1.9306.159-.6361.488-1.2169.9516-1.6805l.8538-.8539L46.2844 7.98047l-1.728 1.72796Z"/><path fill="#000" d="M29.8802 21.6901c-.076-.6496-.4045-1.2433-.9145-1.6528s-1.1606-.602-1.8113-.5358c-.6312.0871-1.2084.4031-1.6218.8879s-.6342 1.1047-.6205 1.7417v11.3574c-1.0609 0-2.0783.4214-2.8284 1.1715-.7502.7502-1.1716 1.7676-1.1716 2.8285v9.6734c.0081.6984.2066 1.3813.574 1.9752.3675.594.8899 1.0764 1.5112 1.3954.5784.3087 1.0621.7687 1.3994 1.3309.3373.5622.5154 1.2055.5154 1.8611v1.2076h15v-2.4436l1.9837-1.8224c.6262-.4713 1.1343-1.0817 1.4842-1.783.35-.7013.5321-1.4743.5321-2.258V31.4885c0-1.0609-.4214-2.0783-1.1716-2.8285-.7501-.7501-1.7675-1.1715-2.8284-1.1715v-4.3226c.017-.6472-.2061-1.2779-.6264-1.7704-.4202-.4925-1.0079-.8121-1.6497-.8972-.63-.0557-1.2575.1302-1.7556.52-.498.3897-.8293.9542-.9267 1.5791h.4584v15.4433h-1V22.5974h.5v-2.4315c.017-.6472-.2061-1.2779-.6264-1.7704-.4202-.4925-1.0079-.8121-1.6497-.8972-.3458-.031-.6943.0103-1.0232.1213-.329.111-.6312.2894-.8874.5236-.2563.2343-.4609.5193-.6009.837s-.2124.6611-.2124 1.0083v1.7016h.5v15.4434h-1V21.6901h.4681Zm-4.5689 20.3506h-1v-8h1v8ZM39.4121 27.799h1v10.4433h-1V27.799Z"/><path fill="url(#e)" d="M29.8802 21.6901c-.076-.6496-.4045-1.2433-.9145-1.6528s-1.1606-.602-1.8113-.5358c-.6312.0871-1.2084.4031-1.6218.8879s-.6342 1.1047-.6205 1.7417v11.3574c-1.0609 0-2.0783.4214-2.8284 1.1715-.7502.7502-1.1716 1.7676-1.1716 2.8285v9.6734c.0081.6984.2066 1.3813.574 1.9752.3675.594.8899 1.0764 1.5112 1.3954.5784.3087 1.0621.7687 1.3994 1.3309.3373.5622.5154 1.2055.5154 1.8611v1.2076h15v-2.4436l1.9837-1.8224c.6262-.4713 1.1343-1.0817 1.4842-1.783.35-.7013.5321-1.4743.5321-2.258V31.4885c0-1.0609-.4214-2.0783-1.1716-2.8285-.7501-.7501-1.7675-1.1715-2.8284-1.1715v-4.3226c.017-.6472-.2061-1.2779-.6264-1.7704-.4202-.4925-1.0079-.8121-1.6497-.8972-.63-.0557-1.2575.1302-1.7556.52-.498.3897-.8293.9542-.9267 1.5791h.4584v15.4433h-1V22.5974h.5v-2.4315c.017-.6472-.2061-1.2779-.6264-1.7704-.4202-.4925-1.0079-.8121-1.6497-.8972-.3458-.031-.6943.0103-1.0232.1213-.329.111-.6312.2894-.8874.5236-.2563.2343-.4609.5193-.6009.837s-.2124.6611-.2124 1.0083v1.7016h.5v15.4434h-1V21.6901h.4681Zm-4.5689 20.3506h-1v-8h1v8ZM39.4121 27.799h1v10.4433h-1V27.799Z"/><defs><linearGradient id="a" x1="32.5059" x2="32.5059" y1="56" y2="62" gradientUnits="userSpaceOnUse"><stop stop-color="#EF8080"/><stop offset="1" stop-color="#F0145A"/></linearGradient><linearGradient id="b" x1="8.45531" x2="11.9909" y1="9.1692" y2="12.7047" gradientUnits="userSpaceOnUse"><stop stop-color="#EF8080"/><stop offset="1" stop-color="#F0145A"/></linearGradient><linearGradient id="c" x1="47.3449" x2="60.78" y1="4.08771" y2="17.5228" gradientUnits="userSpaceOnUse"><stop stop-color="#EF8080"/><stop offset="1" stop-color="#F0145A"/></linearGradient><linearGradient id="d" x1="32.1427" x2="32.1427" y1="7.98047" y2="37.0324" gradientUnits="userSpaceOnUse"><stop stop-color="#EF8080"/><stop offset="1" stop-color="#F0145A"/></linearGradient><linearGradient id="e" x1="32.4121" x2="32.4121" y1="17.4883" y2="54.9321" gradientUnits="userSpaceOnUse"><stop stop-color="#EF8080"/><stop offset="1" stop-color="#F0145A"/></linearGradient></defs></svg>