<svg xmlns="http://www.w3.org/2000/svg" width="64" height="64" fill="none"><path fill="url(#a)" d="M23.7339 28.125c1.104 0 2-.896 2-2v-7.8c0-3.487 2.837-6.325 6.324-6.325 3.487 0 6.325 2.838 6.325 6.325v7.8c0 1.104.895 2 2 2 1.104 0 2-.896 2-2v-7.8C42.3839 12.632 37.7519 8 32.0579 8c-5.692 0-10.324 4.632-10.324 10.325v7.8c0 1.104.896 2 2 2Z"/><path fill="url(#b)" d="M55 23.6309H44.384v2.494c0 2.206-1.794 4-4 4s-4-1.794-4-4v-2.494h-8.649v2.494c0 2.206-1.794 4-4 4s-4-1.794-4-4v-2.494H8.99997c-.552 0-.893.435-.762.971l6.99803 28.497c.422 1.602 2.108 2.901 3.764 2.901h26c1.658 0 3.342-1.299 3.766-2.901l6.996-28.497c.131-.537-.209-.971-.762-.971Z"/><path fill="#fff" d="M28.6001 34.4c0-.7735.6265-1.4 1.4-1.4s1.4.6265 1.4 1.4v6.95V40c0-.7735.6265-1.4 1.4-1.4s1.4.6265 1.4 1.4v1.6764c.0126-.7623.6345-2.3764 1.3999-2.3764.7731 0 1.3999.6268 1.4 1.4 0 0 .0411 1.0411.1332 1.1033.224-.4748.707-1.8033 1.2668-1.8033.7732 0 1.4.6268 1.4 1.4v7c0 1.5463-1.2537 2.8-2.8 2.8h-4.6802c-1.4854 0-2.9099-.5901-3.9599-1.6401L26.15 47.35 23 45.9402c.0051-1.3369 1.0526-1.7402 2.1-1.7402.9023 0 1.7136.1407 3.5 1.05l.0001-10.85Z"/><defs><linearGradient id="a" x1="32.0584" x2="32.0584" y1="8" y2="28.125" gradientUnits="userSpaceOnUse"><stop stop-color="#EF8080"/><stop offset="1" stop-color="#F0145A"/></linearGradient><linearGradient id="b" x1="32" x2="32" y1="23.6309" y2="55.9999" gradientUnits="userSpaceOnUse"><stop stop-color="#EF8080"/><stop offset="1" stop-color="#F0145A"/></linearGradient></defs></svg>