<svg xmlns="http://www.w3.org/2000/svg" width="64" height="64" fill="none"><path fill="url(#a)" d="M41.2317 37.6961c2.3522 0 4.6779.5883 6.726 1.7013.3719.2005.7132.4394 1.0617.6693 3.3613-6.5798 5.1351-13.5389 5.1351-20.3279 0-.3815 0-.7754-.0122-1.1692-.0246-.5538-.4185-1.0338-.9724-1.1569-7.4338-1.6246-14.1661-5.6493-19.4584-11.63077l-.7877-.89851c-.2339-.27074-.5661-.41842-.9231-.41842-.3815-.04921-.6769.13536-.9108.39385L29.8838 6.1881c-5.0215 5.5261-11.3477 9.3415-18.2892 11.04l-.8.1969c-.5416.1231-.9231.6031-.93542 1.1569-.44306 17.3046 9.77232 29.7477 14.17852 34.3015 1.1929 1.2248 2.5229 2.4422 3.7876 3.4485-.4744-1.4308-.7474-2.9362-.7474-4.482 0-7.8047 6.3491-14.1538 14.1538-14.1538Z"/><path fill="url(#b)" d="M46.7822 41.5593c-1.6985-.923-3.6185-1.4031-5.5508-1.4031-6.4492 0-11.6923 5.2431-11.6923 11.6924 0 2.1784.5908 4.3076 1.7231 6.1292 2.1538 3.4831 5.8708 5.5631 9.9692 5.5631 6.4369 0 11.6923-5.2431 11.6923-11.6923 0-4.3077-2.3508-8.2462-6.1415-10.2893Zm.4374 8.7325-9.1449 7.1166-3.122-4.8835c-.3665-.5727-.1989-1.3335.3738-1.6995.5734-.3666 1.3348-.1977 1.6996.3738l1.6676 2.6082 7.0139-5.4579c.5354-.4177 1.3095-.3222 1.7271.2151.4177.5367.3209 1.3101-.2151 1.7272Z"/><defs><linearGradient id="a" x1="31.9999" x2="31.9999" y1="4.45703" y2="56.3319" gradientUnits="userSpaceOnUse"><stop stop-color="#EF8080"/><stop offset="1" stop-color="#F0145A"/></linearGradient><linearGradient id="b" x1="41.2314" x2="41.2314" y1="40.1562" y2="63.5409" gradientUnits="userSpaceOnUse"><stop stop-color="#EF8080"/><stop offset="1" stop-color="#F0145A"/></linearGradient></defs></svg>