<svg xmlns="http://www.w3.org/2000/svg" width="64" height="64" fill="none"><path fill="url(#a)" fill-rule="evenodd" d="M53.4512 35.0781v17.2952c0 3.0933-2.4243 5.6284-5.3881 5.6284h-32.093c-2.9638 0-5.3881-2.5351-5.3881-5.6284V35.0781h16.6661v7.5108l4.7685 3.1335 4.7685-3.1335v-7.5108h16.6661Z" clip-rule="evenodd"/><path fill="url(#b)" fill-rule="evenodd" d="M28.9185 35.0781v6.6085l3.0981 2.0356 3.098-2.0356v-6.6085h-6.1961Z" clip-rule="evenodd"/><path fill="url(#c)" fill-rule="evenodd" d="M12.0732 15.1445h39.8865c1.8824 0 3.4208 1.7081 3.4208 3.7955v10.2531c0 2.0874-1.5384 3.7955-3.4208 3.7955H12.0732c-1.8824 0-3.42086-1.7081-3.42086-3.7955V18.94c0-2.0874 1.53846-3.7955 3.42086-3.7955Z" clip-rule="evenodd"/><path fill="url(#d)" fill-rule="evenodd" d="M23.7117 5.95508h16.6096c1.5431 0 2.8059 1.2628 2.8059 2.80595v4.37737h-3.5575v-2.5868c0-.6974-.5701-1.2699-1.2675-1.2699H25.7308c-.6974 0-1.2675.5725-1.2675 1.2699v2.5868h-3.5575V8.76103c0-1.54315 1.2628-2.80595 2.8059-2.80595Z" clip-rule="evenodd"/><defs><linearGradient id="a" x1="32.0166" x2="32.0166" y1="35.0781" y2="58.0017" gradientUnits="userSpaceOnUse"><stop stop-color="#EF8080"/><stop offset="1" stop-color="#F0145A"/></linearGradient><linearGradient id="b" x1="32.0166" x2="32.0166" y1="35.0781" y2="43.7222" gradientUnits="userSpaceOnUse"><stop stop-color="#EF8080"/><stop offset="1" stop-color="#F0145A"/></linearGradient><linearGradient id="c" x1="32.0164" x2="32.0164" y1="15.1445" y2="32.9886" gradientUnits="userSpaceOnUse"><stop stop-color="#EF8080"/><stop offset="1" stop-color="#F0145A"/></linearGradient><linearGradient id="d" x1="32.0165" x2="32.0165" y1="5.95508" y2="13.1384" gradientUnits="userSpaceOnUse"><stop stop-color="#EF8080"/><stop offset="1" stop-color="#F0145A"/></linearGradient></defs></svg>