<svg xmlns="http://www.w3.org/2000/svg" width="64" height="64" fill="none"><path fill="url(#a)" d="M40.3522 20.389c.732.732 1.918.734 2.65 0l2.608-2.608c.731-.732.729-1.918 0-2.651l-6.583-6.581c-.73-.732-1.916-.732-2.648 0l-2.609 2.608c-.73.732-.73 1.918 0 2.648l6.582 6.584Z"/><path fill="url(#b)" d="M24.766 36.2652c.731.729 1.917.729 2.648 0l2.609-2.6099c.732-.73.732-1.917 0-2.649l-6.583-6.583c-.731-.73-1.917-.732-2.649 0l-2.608 2.6079c-.732.732-.73 1.918 0 2.65l6.583 6.584Z"/><path fill="url(#c)" d="m54.6481 36.8912-2.647-2.65c-.734-.73-1.917-.73-2.648 0l-1.161 1.16-11.205-11.207 2.427-2.428-6.733-6.731-2.428 2.428-3.092 3.09-2.374 2.374 6.732 6.733 2.377-2.373 11.203 11.205-1.048 1.049c-.732.729-.734 1.916 0 2.648l2.647 2.648c.734.734 1.919.734 2.65 0l5.299-5.297c.733-.733.733-1.917.001-2.649Z"/><path fill="url(#d)" d="M35.077 44.9425c0-1.199-.972-2.173-2.173-2.173H15.936c-1.2 0-2.173.974-2.173 2.173v3.527H9v7.389h30.558v-7.389h-4.481v-3.527Z"/><defs><linearGradient id="a" x1="39.6902" x2="39.6902" y1="8" y2="20.9388" gradientUnits="userSpaceOnUse"><stop stop-color="#EF8080"/><stop offset="1" stop-color="#F0145A"/></linearGradient><linearGradient id="b" x1="24.1034" x2="24.1034" y1="23.875" y2="36.812" gradientUnits="userSpaceOnUse"><stop stop-color="#EF8080"/><stop offset="1" stop-color="#F0145A"/></linearGradient><linearGradient id="c" x1="39.992" x2="39.992" y1="15.0352" y2="45.3877" gradientUnits="userSpaceOnUse"><stop stop-color="#EF8080"/><stop offset="1" stop-color="#F0145A"/></linearGradient><linearGradient id="d" x1="24.279" x2="24.279" y1="42.7695" y2="55.8585" gradientUnits="userSpaceOnUse"><stop stop-color="#EF8080"/><stop offset="1" stop-color="#F0145A"/></linearGradient></defs></svg>