<svg xmlns="http://www.w3.org/2000/svg" width="70" height="33" fill="none"><path fill="#F0145A" d="M2.64358 0H0v19.0926h2.64358v-7.0832c0-1.1983.29805-2.14357.89416-2.80928.5961-.66571 1.4125-1.01188 2.42328-1.01188.86824 0 1.59393.31954 2.17707.932.58314.62577.8812 1.41126.8812 2.35666v7.629h2.65651v-7.629c0-1.75752-.4794-3.1422-1.4384-4.18071-.95894-1.03851-2.21594-1.55776-3.74507-1.55776-.4406 0-.88119.05325-1.30883.17308-.4406.11983-.79049.25297-1.07558.39943-.28509.14645-.55722.30623-.80344.49262-.24622.1864-.41468.31955-.49243.39943-.07776.07989-.14255.13314-.16847.17309V0Z"/><path fill="#fff" d="M17.5856 0h-2.7252v19.0767h2.7252V0ZM33.6598 13.4896l.1362-1.3626c0-1.8259-.5995-3.35207-1.8259-4.57843-1.2263-1.22636-2.7525-1.82591-4.5784-1.82591-1.8259 0-3.4066.65406-4.7147 1.96217-1.3081 1.30812-1.9622 2.86147-1.9622 4.71467 0 1.9077.6814 3.5428 2.0167 4.9055 1.3354 1.3626 2.9433 2.0439 4.7965 2.0439.7085 0 1.3626-.109 2.0166-.2998.6541-.218 1.1992-.436 1.5807-.654.4088-.2453.8176-.5178 1.1718-.8176.3543-.2998.5996-.5178.7086-.6541.109-.1362.1908-.218.2453-.2998l-1.7714-1.7714-.4088.5178c-.2725.3271-.7358.6541-1.3899 1.0084-.6813.3543-1.3899.5178-2.1529.5178-1.0629 0-1.9622-.3271-2.7253-1.0084-.7631-.6813-1.2263-1.4716-1.3626-2.3982h10.2197Zm-6.2681-5.45048c1.0083 0 1.8259.29977 2.5072.87208.6541.59955 1.0629 1.3354 1.2264 2.262h-7.5762c.2453-.9266.6813-1.66245 1.3626-2.262.6541-.57231 1.4989-.87208 2.48-.87208ZM46.3695 18.286c0 1.1992-.3542 2.1802-1.0901 2.9433-.7085.7358-1.6079 1.1174-2.7252 1.1174-.4905 0-.9811-.0818-1.4444-.2181-.4633-.1362-.8176-.2997-1.1173-.4905-.2998-.1908-.5723-.3815-.8449-.6268-.2452-.2453-.4087-.4088-.4905-.4906-.0818-.0817-.1363-.1635-.1908-.218l-1.7714 1.7714.218.2726c.1363.1907.3816.436.7086.7085.327.2453.7086.5178 1.1446.7903.436.2453.9811.4633 1.6624.6541.6813.1908 1.3899.2998 2.1257.2998 1.8532 0 3.3793-.6268 4.6602-1.8804 1.2536-1.2809 1.8804-2.807 1.8804-4.6602V5.99518h-2.7253V7.3578l-.4633-.40878c-.2997-.27253-.763-.54505-1.4171-.81758-.654-.27252-1.3626-.40878-2.0712-.40878-1.6624 0-3.0795.6268-4.3059 1.90767-1.2263 1.28087-1.8259 2.80697-1.8259 4.63287 0 1.826.5996 3.3521 1.8259 4.633 1.2264 1.2808 2.6435 1.9076 4.3059 1.9076.4633 0 .8994-.0545 1.3627-.1635.436-.1362.7903-.2725 1.0901-.4088.2997-.1362.5723-.2997.8175-.4905.2453-.1908.4361-.327.4906-.3815l.1907-.1908v1.1173Zm-7.3581-6.0228c0-1.1446.3543-2.0984 1.0901-2.88871.7358-.79032 1.6079-1.19911 2.589-1.19911.981 0 1.8531.40879 2.5889 1.19911.7086.79031 1.0901 1.74411 1.0901 2.88871 0 1.1447-.3815 2.0985-1.0901 2.8888-.7358.7903-1.6079 1.1991-2.5889 1.1991-.9811 0-1.8532-.4088-2.589-1.1991s-1.0901-1.7441-1.0901-2.8888ZM63.3195 19.0764v-8.4483c0-1.38987-.5178-2.56173-1.5261-3.48831-1.0083-.95384-2.3165-1.41713-3.9244-1.41713-.6268 0-1.2536.08175-1.8531.24527-.5996.19077-1.0901.38153-1.4444.59955-.3543.21802-.7086.4633-1.0356.76307-.327.27253-.5178.46329-.6268.5723-.0818.10901-.1635.19077-.218.27253l1.7714 1.77141.3543-.46329c.218-.29978.5995-.5723 1.1718-.87208.5723-.29978 1.1991-.43604 1.8804-.43604.7904 0 1.4444.24527 1.9622.70856.5178.4633.7631 1.06285.7631 1.74416l-4.7692.8176c-1.1718.1907-2.1257.654-2.7797 1.3899-.6814.7358-1.0356 1.6351-1.0356 2.6979 0 1.0084.436 1.8805 1.3081 2.6435.8993.7904 1.9894 1.1719 3.3248 1.1719.4633 0 .8993-.0545 1.3354-.1908.4632-.109.8175-.2452 1.1173-.3815.2998-.1363.5723-.2998.8176-.4906.2452-.1907.4088-.327.5178-.3815.0817-.0817.1362-.1635.1635-.1908v1.3627h2.7252Zm-6.268-2.1802c-.7086 0-1.2809-.1635-1.6897-.4906-.436-.327-.6268-.7085-.6268-1.1446 0-.4633.1363-.8721.4361-1.1718.2997-.2998.7085-.5178 1.1991-.5996l4.2241-.6813v.2725c0 1.2264-.2998 2.153-.9266 2.8343-.6268.654-1.4989.9811-2.6162.9811ZM69.3337 0h-2.7253v19.0767h2.7253V0ZM0 28.3308h.85288v2.9903h1.8479v.6949H0v-3.6852ZM8.26752 31.2263H6.5565l-.32641.7897h-.87394l1.64258-3.6852h.84235l1.64785 3.6852h-.895l-.32641-.7897Zm-.2685-.6475-.58438-1.411-.58438 1.411h1.16876ZM17.8731 28.3308l-1.2056 3.6852h-.916l-.8108-2.4954-.8371 2.4954h-.9108l-1.2108-3.6852h.8844l.8318 2.5902.8687-2.5902h.7897l.8424 2.6112.8581-2.6112h.816ZM26.9457 32.0792c-.3755 0-.716-.0807-1.0213-.2422-.3019-.1649-.5406-.3913-.716-.6791-.172-.2913-.258-.6195-.258-.9845s.086-.6914.258-.9792c.1754-.2914.4141-.5177.716-.6792.3053-.1649.6475-.2474 1.0266-.2474.3194 0 .6072.0561.8634.1684.2597.1124.4773.2738.6528.4844l-.5475.5054c-.2492-.2878-.5581-.4317-.9266-.4317-.2282 0-.4317.0509-.6107.1527-.179.0983-.3194.2369-.4212.4159-.0983.179-.1474.3826-.1474.6107 0 .2281.0491.4317.1474.6107.1018.179.2422.3194.4212.4212.179.0982.3825.1474.6107.1474.3685 0 .6774-.1457.9266-.437l.5475.5054c-.1755.2141-.3931.3773-.6528.4896-.2597.1124-.5493.1685-.8687.1685ZM33.3831 32.0792c-.3826 0-.7283-.0825-1.0372-.2474-.3053-.165-.5457-.3914-.7212-.6792-.172-.2913-.258-.6177-.258-.9792 0-.3615.086-.6862.258-.974.1755-.2913.4159-.5194.7212-.6844.3089-.1649.6546-.2474 1.0372-.2474.3826 0 .7265.0825 1.0319.2474.3053.165.5457.3931.7212.6844.1755.2878.2633.6125.2633.974 0 .3615-.0878.6879-.2633.9792-.1755.2878-.4159.5142-.7212.6792-.3054.1649-.6493.2474-1.0319.2474Zm0-.7265c.2176 0 .4141-.0492.5896-.1474.1755-.1018.3124-.2422.4107-.4212.1018-.179.1527-.3826.1527-.6107 0-.2281-.0509-.4317-.1527-.6107-.0983-.179-.2352-.3176-.4107-.4159-.1755-.1018-.372-.1527-.5896-.1527-.2176 0-.4142.0509-.5897.1527-.1754.0983-.3141.2369-.4159.4159-.0982.179-.1474.3826-.1474.6107 0 .2281.0492.4317.1474.6107.1018.179.2405.3194.4159.4212.1755.0982.3721.1474.5897.1474ZM42.0264 32.016l-.0053-2.2111-1.0845 1.8215h-.3843l-1.0793-1.7742v2.1638h-.8002v-3.6852h.7054l1.3794 2.2901 1.3583-2.2901h.7002l.0105 3.6852h-.8002ZM47.9285 28.3308c.3264 0 .6089.0544.8476.1632.2422.1088.4282.2632.5581.4633.1298.2.1948.4369.1948.7107 0 .2702-.065.5071-.1948.7107-.1299.2001-.3159.3545-.5581.4633-.2387.1053-.5212.1579-.8476.1579h-.7423v1.0161h-.8529v-3.6852h1.5952Zm-.0474 1.9742c.2562 0 .451-.0544.5844-.1632.1334-.1123.2001-.2702.2001-.4738 0-.2071-.0667-.365-.2001-.4738-.1334-.1124-.3282-.1685-.5844-.1685h-.6949v1.2793h.6949ZM55.0121 31.2263h-1.711l-.3264.7897h-.8739l1.6425-3.6852h.8424l1.6478 3.6852h-.895l-.3264-.7897Zm-.2685-.6475-.5844-1.411-.5843 1.411h1.1687ZM62.6281 28.3308v3.6852h-.7002l-1.8373-2.2375v2.2375h-.8424v-3.6852h.7055l1.8321 2.2374v-2.2374h.8423ZM67.9013 30.7104v1.3056h-.8528v-1.3161l-1.4268-2.3691h.9056l.9844 1.6373.9846-1.6373h.837l-1.432 2.3796Z"/></svg>